<?xml version="1.0" encoding="utf-8"?>
<!-- Generator: Adobe Illustrator 24.0.2, SVG Export Plug-In . SVG Version: 6.00 Build 0)  -->
<svg version="1.1" id="Capa_1" xmlns="http://www.w3.org/2000/svg" xmlns:xlink="http://www.w3.org/1999/xlink" x="0px" y="0px"
	 viewBox="0 0 100 33" style="enable-background:new 0 0 100 33;" xml:space="preserve">
<style type="text/css">
	.st0{fill:#FFFFFF;}
	.st1{fill:url(#SVGID_1_);}
	.st2{fill:url(#SVGID_2_);}
	.st3{fill:url(#SVGID_3_);}
	.st4{fill:url(#SVGID_4_);}
	.st5{fill:url(#SVGID_5_);}
	.st6{fill:url(#SVGID_6_);}
</style>
<g>
	<g>
		<g>
			<path class="st0" d="M46.5,11.9H48v9.7h3.6v1.5h-5.1V11.9z"/>
			<path class="st0" d="M54.8,12h1.5v6.9c0,1,0.2,1.8,0.7,2.3c0.5,0.5,1.2,0.8,2.1,0.8s1.6-0.2,2.1-0.7c0.5-0.5,0.7-1.2,0.7-2.1V12
				h1.5v7c0,1.3-0.4,2.4-1.1,3.3c-0.8,0.8-1.8,1.2-3.1,1.2c-1.3,0-2.4-0.4-3.2-1.2c-0.8-0.8-1.2-2-1.2-3.7V12H54.8z"/>
			<path class="st0" d="M67.5,11.9h2.7c2.1,0,3.7,0.5,4.8,1.7s1.5,2.4,1.5,3.9c0,1.4-0.5,2.7-1.6,3.9c-1.1,1.1-2.6,1.7-4.7,1.7h-2.7
				L67.5,11.9L67.5,11.9z M69.1,13.4v8.2h0.1c1.1,0,2,0,2.5-0.1c0.5-0.1,1.1-0.3,1.6-0.6c0.5-0.3,0.9-0.8,1.2-1.4
				c0.3-0.5,0.4-1.2,0.4-1.9c0-0.8-0.2-1.6-0.7-2.3c-0.5-0.7-1-1.1-1.7-1.4s-1.6-0.3-2.7-0.3C69.8,13.4,69.1,13.4,69.1,13.4z"/>
			<path class="st0" d="M80.1,12h1.5v6.9c0,1,0.2,1.8,0.7,2.3s1.2,0.8,2.1,0.8s1.6-0.2,2.1-0.7s0.7-1.2,0.7-2.1V12h1.5v7
				c0,1.3-0.4,2.4-1.1,3.3c-0.8,0.8-1.8,1.2-3.1,1.2c-1.3,0-2.4-0.4-3.2-1.2c-0.8-0.8-1.2-2-1.2-3.7V12H80.1z"/>
			<path class="st0" d="M99.7,13.2l-1.2,1c-0.3-0.3-0.6-0.6-0.9-0.7c-0.2-0.1-0.6-0.2-1.1-0.2c-0.5,0-1,0.1-1.3,0.3
				c-0.3,0.2-0.5,0.5-0.5,0.9c0,0.3,0.1,0.6,0.4,0.9s0.8,0.5,1.5,0.8c0.7,0.3,1.3,0.6,1.7,0.8c0.4,0.2,0.7,0.5,1,0.9
				c0.2,0.3,0.4,0.6,0.6,1c0.1,0.3,0.2,0.7,0.2,1.1c0,0.9-0.3,1.7-1,2.4c-0.7,0.6-1.5,1-2.4,1c-0.9,0-1.7-0.2-2.5-0.7
				c-0.7-0.5-1.2-1.3-1.6-2.3L94,20c0.5,1.2,1.4,1.9,2.5,1.9c0.5,0,1-0.1,1.4-0.5c0.3-0.3,0.5-0.7,0.5-1.2c0-0.3-0.1-0.6-0.3-0.9
				c-0.2-0.3-0.4-0.5-0.7-0.7c-0.3-0.2-0.7-0.4-1.3-0.7c-0.6-0.2-1.1-0.5-1.4-0.7c-0.3-0.2-0.6-0.4-0.9-0.7
				c-0.2-0.3-0.4-0.6-0.5-0.9c-0.1-0.3-0.1-0.6-0.1-0.9c0-0.8,0.3-1.5,0.9-2c0.6-0.5,1.4-0.8,2.3-0.8c0.6,0,1.2,0.1,1.8,0.4
				C98.7,12.2,99.3,12.6,99.7,13.2z"/>
		</g>
	</g>
	<g>
		<path class="st0" d="M0.3,25.6c0,0-2.2-7,11.8-7.5c0,0,8.2,0.8,8.1-4.1c0-3-0.6-6.3,0.3-9.3c0.3-1,1.2-2.1,1.9-2.8
			c1-1,3.4-1.8,4.2-1.6c7.9,2.1,0.9,14.3,0.9,14.3s-2.7,4.8,5,9.1c5.5,3,8,6.7,6.1,9.1c-0.8,1.1-14.2-5.2-14.2-5.2S19.2,24,12.9,27
			c-4.5,2.1-8.1,2.3-10.2,1.6c-0.4-0.1-1-0.6-1.3-0.9C0.8,27,0.4,26.2,0.3,25.6z"/>
		
			<linearGradient id="SVGID_1_" gradientUnits="userSpaceOnUse" x1="21.3026" y1="33.2554" x2="37.5228" y2="14.2085" gradientTransform="matrix(1 0 0 -1 0 34.9148)">
			<stop  offset="0" style="stop-color:#FFFFFF"/>
			<stop  offset="1" style="stop-color:#000000"/>
		</linearGradient>
		<path class="st1" d="M20.6,5.2c0,0,0.6-4.2,5-5c5.7-1,6.6,4.1,3.5,11.3s1.1,10.4,1.1,10.4s-5.8-2.6-3.2-12.5S20.9,1.6,20.6,5.2z"
			/>
		
			<linearGradient id="SVGID_2_" gradientUnits="userSpaceOnUse" x1="7.5001" y1="19.8321" x2="22.7453" y2="1.93" gradientTransform="matrix(1 0 0 -1 0 34.9148)">
			<stop  offset="0" style="stop-color:#FFFFFF"/>
			<stop  offset="1" style="stop-color:#000000"/>
		</linearGradient>
		<path class="st2" d="M2.7,28.5c0,0-2-0.6-2.6-3.3C-0.4,22.5,1,21,4.1,19.6c3-1.4,12.8-3.7,26.1,2.3C30.1,21.9-0.3,13,2.7,28.5z"/>
		
			<linearGradient id="SVGID_3_" gradientUnits="userSpaceOnUse" x1="19.9137" y1="14.6821" x2="36.5377" y2="-4.8391" gradientTransform="matrix(1 0 0 -1 0 34.9148)">
			<stop  offset="0" style="stop-color:#FFFFFF"/>
			<stop  offset="1" style="stop-color:#000000"/>
		</linearGradient>
		<path class="st3" d="M13.5,26.7c0,0,10.3-7.1,16.6-4.7s9.5,7.1,9.2,9.3c-0.3,2.1-1.7,1.7-1.7,1.7s0.6-5.7-9.2-9.7
			C23.7,21.2,13.5,26.7,13.5,26.7z"/>
		
			<radialGradient id="SVGID_4_" cx="12.4278" cy="11.7735" r="17.5307" gradientTransform="matrix(1 0 0 -1 0 34.9148)" gradientUnits="userSpaceOnUse">
			<stop  offset="0" style="stop-color:#FFFFFF"/>
			<stop  offset="0.4725" style="stop-color:#C0BDBC"/>
			<stop  offset="1" style="stop-color:#3D3D3D"/>
		</radialGradient>
		<path class="st4" d="M2.7,28.5c0,0-3.8-6.2,4.1-8.2C13,18.7,18,18.6,30,21.8c0,0-5.7-1.9-15.9,4.6C14.1,26.5,7.4,30.1,2.7,28.5z"
			/>
		
			<radialGradient id="SVGID_5_" cx="27.8845" cy="9.0624" r="12.1437" gradientTransform="matrix(1 0 0 -1 0 34.9148)" gradientUnits="userSpaceOnUse">
			<stop  offset="0.2121" style="stop-color:#FFFFFF"/>
			<stop  offset="0.4725" style="stop-color:#C0BDBC"/>
			<stop  offset="1" style="stop-color:#3D3D3D"/>
		</radialGradient>
		<path class="st5" d="M13.6,26.7c0,0,7.4-4.8,14-3.7c6.6,1,10.9,7,10.1,10c0,0-2-0.2-10.1-3.9C18.9,25.2,17.6,25.5,13.6,26.7z"/>
		
			<radialGradient id="SVGID_6_" cx="24.5486" cy="24.9817" r="15.4576" gradientTransform="matrix(1 0 0 -1 0 34.9148)" gradientUnits="userSpaceOnUse">
			<stop  offset="0.2121" style="stop-color:#FFFFFF"/>
			<stop  offset="0.4725" style="stop-color:#C0BDBC"/>
			<stop  offset="0.8134" style="stop-color:#3D3D3D"/>
		</radialGradient>
		<path class="st6" d="M30,21.8c0,0-5-4.3-1.2-13.7c1.3-3.3,2.3-9.7-4.3-7.7c-4.8,1.4-4.2,7.6-4.2,7.6S20.2,18.7,30,21.8z"/>
	</g>
</g>
</svg>
